Coordinates
version=1
nRows=26
nColumns=22
inDegrees=yes

Units are S.I. units (second, meters, Newtons, ...)
If the header above contains a line with 'inDegrees', this indicates whether rotational values are in degrees (yes) or radians (no).

endheader
time	pelvis_tilt	pelvis_list	pelvis_rotation	pelvis_tx	pelvis_ty	pelvis_tz	hip_flexion_r	hip_adduction_r	hip_rotation_r	knee_angle_r	ankle_angle_r	subtalar_angle_r	hip_flexion_l	hip_adduction_l	hip_rotation_l	knee_angle_l	ankle_angle_l	subtalar_angle_l	lumbar_extension	lumbar_bending	lumbar_rotation
      4.32000000	      5.48082776	      8.09161520	     93.04439494	      1.02616601	      0.93662270	     -0.53485649	      4.82478582	      8.19893562	     -6.69346591	    -21.63132073	      7.88852979	     -4.61757472	      6.36366387	     -8.53525723	      3.21062379	    -59.05386369	     13.92473287	     -7.02685837	    -14.38408690	      4.27583157	     -7.78175801
      4.33000000	      5.37450601	      8.14911454	     93.14436625	      1.02736438	      0.93711315	     -0.53743350	      4.52776861	      8.19399609	     -6.75212518	    -21.52891255	      7.93349368	     -4.72434802	      7.02449814	     -8.35799067	      3.15286433	    -58.75760885	     14.61325883	     -7.50328055	    -14.56801360	      4.21213888	     -7.57246496
      4.34000000	      5.28856682	      8.22419382	     93.24108484	      1.02848150	      0.93762487	     -0.53992694	      4.20939024	      8.20251505	     -6.82344917	    -21.41059978	      7.96421643	     -4.80698552	      7.60574214	     -8.18826316	      3.10847215	    -58.30492707	     15.26204932	     -7.79895762	    -14.76582818	      4.17744278	     -7.35663602
      4.35000000	      5.21906645	      8.30092460	     93.32632374	      1.02954844	      0.93813961	     -0.54239847	      3.88520377	      8.21990202	     -6.91335273	    -21.28140956	      7.97449570	     -4.85095382	      8.11063781	     -8.04447416	      3.03366161	    -57.68751721	     15.88106376	     -7.89188007	    -14.94482868	      4.16303493	     -7.15691895
      4.36000000	      5.15459009	      8.41457745	     93.40748301	      1.03054993	      0.93871255	     -0.54479856	      3.50646575	      8.24603398	     -6.96011309	    -21.11602619	      7.96211770	     -4.90299609	      8.50700676	     -7.90494172	      2.95942599	    -56.92461611	     16.49952894	     -8.03946371	    -15.16120656	      4.15618252	     -6.94936577
      4.37000000	      5.10836830	      8.52857927	     93.47676625	      1.03151512	      0.93927110	     -0.54717938	      3.13199732	      8.28432458	     -7.02646547	    -20.95438955	      7.95563034	     -4.92102117	      8.82847072	     -7.81036348	      2.83527338	    -56.01975787	     17.12049485	     -8.09378609	    -15.35952917	      4.17048748	     -6.75458649
      4.38000000	      5.06896868	      8.58834411	     93.55206042	      1.03241647	      0.93970737	     -0.54949471	      2.83938661	      8.31819859	     -7.10274141	    -20.82772561	      7.95031489	     -4.91768511	      9.15386840	     -7.73028040	      2.70619693	    -55.00974815	     17.75917968	     -8.04854999	    -15.47913473	      4.19204132	     -6.59136070
      4.39000000	      5.04109084	      8.80717765	     93.57532314	      1.03333235	      0.94042510	     -0.55185775	      2.32371582	      8.37999272	     -7.12418710	    -20.61413391	      7.96954654	     -4.87801030	      9.18994751	     -7.72032438	      2.45013741	    -53.83351315	     18.36783825	     -8.17211461	    -15.76898848	      4.22451130	     -6.37451347
      4.40000000	      5.01242346	      8.94285099	     93.60459122	      1.03417991	      0.94095976	     -0.55411554	      1.93782593	      8.42404473	     -7.16474836	    -20.46174225	      8.00891713	     -4.80251225	      9.27019703	     -7.70464554	      2.20200882	    -52.58824498	     19.00313637	     -8.26422742	    -15.95515378	      4.25408040	     -6.19276106
      4.41000000	      4.98686435	      9.07248902	     93.61930292	      1.03498004	      0.94145609	     -0.55631667	      1.56733889	      8.46422180	     -7.19225244	    -20.32088632	      8.07378709	     -4.68491282	      9.29159147	     -7.70551772	      1.91637231	    -51.26489737	     19.62014815	     -8.37154807	    -16.12473007	      4.28649287	     -6.01809727
      4.42000000	      4.96344437	      9.18137472	     93.61882356	      1.03572985	      0.94188221	     -0.55844252	      1.23572030	      8.49605737	     -7.21756331	    -20.20318743	      8.17024539	     -4.52418480	      9.27700704	     -7.71179588	      1.60714406	    -49.88506750	     20.21719157	     -8.48601448	    -16.26546861	      4.32030102	     -5.85473363
      4.43000000	      4.93949216	      9.27006206	     93.60198844	      1.03642662	      0.94223952	     -0.56049263	      0.94035357	      8.51626642	     -7.23716731	    -20.10593657	      8.29113658	     -4.31323245	      9.22885234	     -7.71528958	      1.28043354	    -48.46564029	     20.77691545	     -8.60434477	    -16.37830504	      4.35352448	     -5.71175834
      4.44000000	      4.91834319	      9.32945201	     93.57152652	      1.03705479	      0.94250505	     -0.56246373	      0.69272100	      8.52632855	     -7.25865416	    -20.03116581	      8.44209680	     -4.06579797	      9.16555775	     -7.70941751	      0.95677502	    -47.03161717	     21.28944964	     -8.68975740	    -16.45406820	      4.39254972	     -5.58250733
      4.45000000	      4.90291418	      9.35946487	     93.52498619	      1.03762588	      0.94268083	     -0.56435836	      0.49042781	      8.52999148	     -7.28721823	    -19.97425060	      8.63072318	     -3.80593152	      9.09055356	     -7.69314671	      0.65286993	    -45.59665537	     21.73849591	     -8.71394164	    -16.49251033	      4.43840626	     -5.45734028
      4.46000000	      4.88751191	      9.36936600	     93.46257656	      1.03815370	      0.94278869	     -0.56618542	      0.31496852	      8.52487303	     -7.31547589	    -19.91923240	      8.82997636	     -3.52679065	      8.99415771	     -7.65972144	      0.37353831	    -44.17378146	     22.12153597	     -8.67346346	    -16.50664992	      4.48216938	     -5.36120264
      4.47000000	      4.87603647	      9.36119263	     93.38829056	      1.03863212	      0.94283857	     -0.56796615	      0.15614684	      8.51794725	     -7.34365437	    -19.85358530	      9.03906598	     -3.24583498	      8.87794349	     -7.61273894	      0.13039984	    -42.77623741	     22.42021978	     -8.55587682	    -16.49397449	      4.53281095	     -5.28859434
      4.48000000	      4.86815819	      9.34477880	     93.30209772	      1.03906760	      0.94284546	     -0.56970867	      0.00300073	      8.51020783	     -7.37209878	    -19.77699011	      9.26197262	     -2.98645072	      8.73248218	     -7.55483357	     -0.07539085	    -41.41654301	     22.64005392	     -8.35778605	    -16.46614780	      4.58845403	     -5.22793821
      4.49000000	      4.86616523	      9.32521095	     93.20763688	      1.03947944	      0.94283561	     -0.57142989	     -0.16653904	      8.51259294	     -7.37901746	    -19.65888244	      9.45710576	     -2.74827907	      8.55283622	     -7.49257152	     -0.23772368	    -40.10060188	     22.77081247	     -8.06750386	    -16.42756237	      4.64855873	     -5.20745684
      4.50000000	      4.87216169	      9.29228584	     93.09605443	      1.03984661	      0.94277019	     -0.57313274	     -0.31691707	      8.51275097	     -7.42059203	    -19.54747626	      9.69501328	     -2.61505348	      8.35566413	     -7.43300421	     -0.38276934	    -38.85206146	     22.85424983	     -7.79938935	    -16.36489017	      4.72028571	     -5.16580049
      4.51000000	      4.88087741	      9.27236157	     92.97967777	      1.04021342	      0.94272599	     -0.57483487	     -0.50806524	      8.52606332	     -7.42959075	    -19.38360651	      9.89225677	     -2.53175439	      8.10569334	     -7.38027088	     -0.50999970	    -37.65816602	     22.86663353	     -7.50350447	    -16.30896485	      4.78695766	     -5.15685452
      4.52000000	      4.89946043	      9.25444257	     92.85558688	      1.04054872	      0.94267672	     -0.57653024	     -0.71710229	      8.55206984	     -7.42401845	    -19.18805539	     10.06477452	     -2.51261068	      7.82395923	     -7.34491876	     -0.64125885	    -36.54007008	     22.82354708	     -7.22728005	    -16.24634800	      4.86498037	     -5.16508297
      4.53000000	      4.92027778	      9.23737900	     92.72376973	      1.04086371	      0.94262229	     -0.57820806	     -0.93415276	      8.58170672	     -7.40446641	    -18.97644180	     10.22644120	     -2.55128077	      7.51020136	     -7.32258536	     -0.79117523	    -35.49806609	     22.75891133	     -7.01697111	    -16.17844818	      4.94187166	     -5.18138639
      4.54000000	      4.94441444	      9.22196459	     92.58661099	      1.04114004	      0.94257215	     -0.57987065	     -1.16071165	      8.61403862	     -7.37267129	    -18.74892971	     10.36703273	     -2.63021988	      7.16708811	     -7.31601491	     -0.97728691	    -34.53582564	     22.68315809	     -6.87972802	    -16.10573223	      5.02136210	     -5.20732055
      4.55000000	      4.96688487	      9.20256920	     92.44613909	      1.04136856	      0.94252042	     -0.58150031	     -1.38268031	      8.64123662	     -7.32864860	    -18.51885125	     10.49444909	     -2.72493885	      6.80409988	     -7.31840114	     -1.20727726	    -33.65338497	     22.61756347	     -6.81992714	    -16.02389892	      5.09953058	     -5.24431155
      4.56000000	      4.98606246	      9.18218315	     92.30746774	      1.04156316	      0.94247910	     -0.58309854	     -1.60115638	      8.66163741	     -7.28412304	    -18.29145959	     10.60767035	     -2.82129473	      6.41870204	     -7.33130631	     -1.49266956	    -32.84067305	     22.57399396	     -6.82729876	    -15.93879711	      5.16780285	     -5.29118571
      4.57000000	      4.99388001	      9.14798447	     92.17204553	      1.04168825	      0.94243296	     -0.58463176	     -1.79243405	      8.66225590	     -7.23434199	    -18.07869188	     10.71643215	     -2.89237665	      6.03176402	     -7.33632127	     -1.82324066	    -32.09635379	     22.56740801	     -6.89131988	    -15.83686980	      5.22760255	     -5.35060147
